<?xml version="1.0" encoding="UTF-8"?>
<svg xmlns="http://www.w3.org/2000/svg" xmlns:xlink="http://www.w3.org/1999/xlink" width="36px" height="36px" viewBox="0 0 36 36" version="1.1">
<g id="surface1">
<path style=" stroke:none;fill-rule:nonzero;fill:rgb(11.764706%,70.19608%,46.666667%);fill-opacity:1;" d="M 25.503906 24.722656 C 25.519531 24.84375 25.515625 24.855469 25.441406 24.847656 C 25.398438 24.84375 24.972656 24.835938 24.496094 24.828125 C 23.957031 24.824219 23.625 24.804688 23.625 24.785156 C 23.625 24.765625 23.554688 24.75 23.464844 24.75 C 23.367188 24.75 23.3125 24.765625 23.328125 24.785156 C 23.339844 24.808594 23.257812 24.820312 23.101562 24.820312 C 22.964844 24.820312 22.851562 24.808594 22.851562 24.792969 C 22.851562 24.777344 22.78125 24.75 22.695312 24.730469 C 22.609375 24.710938 22.546875 24.707031 22.558594 24.722656 C 22.566406 24.738281 22.558594 24.75 22.539062 24.75 C 22.515625 24.75 22.5 24.734375 22.5 24.710938 C 22.5 24.691406 22.472656 24.683594 22.4375 24.695312 C 22.351562 24.722656 22.289062 24.671875 22.285156 24.570312 C 22.285156 24.523438 22.296875 23.21875 22.308594 21.675781 L 22.335938 18.863281 L 22.832031 18.332031 C 23.101562 18.042969 23.484375 17.632812 23.679688 17.417969 C 24.683594 16.324219 24.859375 16.132812 25.089844 15.890625 L 25.34375 15.625 L 25.347656 17.332031 C 25.363281 21.007812 25.429688 24.164062 25.503906 24.722656 Z M 17.085938 22.34375 C 17.019531 22.421875 16.964844 22.40625 16.917969 22.285156 C 16.894531 22.222656 16.863281 22.1875 16.839844 22.199219 C 16.820312 22.214844 16.808594 22.207031 16.8125 22.191406 C 16.828125 22.132812 16.664062 21.933594 16.617188 21.960938 C 16.59375 21.972656 16.589844 21.972656 16.601562 21.953125 C 16.625 21.929688 16.492188 21.722656 16.398438 21.640625 C 16.375 21.621094 16.335938 21.570312 16.308594 21.53125 C 16.28125 21.488281 16.191406 21.378906 16.113281 21.285156 C 15.808594 20.929688 15.027344 19.988281 14.820312 19.71875 C 14.792969 19.6875 14.769531 19.660156 14.75 19.628906 C 14.371094 19.152344 14.234375 18.976562 14.277344 18.890625 C 14.304688 18.835938 14.40625 18.816406 14.566406 18.78125 C 14.746094 18.742188 14.988281 18.683594 15.109375 18.648438 C 15.296875 18.601562 15.359375 18.597656 15.484375 18.632812 C 15.597656 18.664062 15.65625 18.664062 15.707031 18.636719 C 15.75 18.613281 15.921875 18.597656 16.089844 18.597656 C 16.425781 18.597656 16.894531 18.550781 17.160156 18.488281 C 17.3125 18.453125 17.851562 18.417969 18.140625 18.421875 C 18.207031 18.425781 18.621094 18.433594 19.058594 18.441406 C 19.546875 18.453125 19.933594 18.445312 20.058594 18.421875 C 20.175781 18.402344 20.332031 18.386719 20.414062 18.386719 C 20.496094 18.386719 20.570312 18.371094 20.582031 18.351562 C 20.59375 18.332031 20.621094 18.316406 20.640625 18.316406 C 20.726562 18.316406 20.320312 18.859375 19.867188 19.34375 C 19.761719 19.460938 19.648438 19.582031 19.617188 19.613281 C 19.28125 20.003906 18.683594 20.648438 18.121094 21.234375 C 17.253906 22.136719 17.15625 22.242188 17.15625 22.265625 C 17.15625 22.28125 17.175781 22.28125 17.195312 22.269531 C 17.222656 22.253906 17.226562 22.257812 17.210938 22.285156 C 17.199219 22.308594 17.171875 22.316406 17.15625 22.308594 C 17.140625 22.296875 17.109375 22.3125 17.085938 22.34375 Z M 8.929688 17.070312 L 8.917969 16.890625 L 8.898438 17.121094 C 8.875 17.351562 8.824219 13.628906 8.824219 11.945312 L 8.824219 11.039062 L 9.90625 11.042969 C 10.5 11.046875 10.960938 11.050781 10.933594 11.058594 C 10.90625 11.0625 10.738281 11.089844 10.566406 11.113281 C 10.308594 11.148438 10.234375 11.175781 10.167969 11.246094 C 10.078125 11.34375 10.0625 11.460938 10.140625 11.460938 C 10.175781 11.460938 10.203125 11.511719 10.214844 11.597656 C 10.230469 11.675781 10.261719 11.746094 10.289062 11.757812 C 10.316406 11.769531 10.332031 11.792969 10.320312 11.808594 C 10.308594 11.828125 10.316406 11.851562 10.335938 11.863281 C 10.355469 11.878906 10.371094 11.929688 10.371094 11.980469 C 10.371094 12.035156 10.402344 12.125 10.441406 12.1875 C 10.492188 12.273438 10.507812 12.375 10.515625 12.617188 C 10.519531 12.832031 10.535156 12.949219 10.566406 12.976562 C 10.59375 12.996094 10.621094 13.101562 10.632812 13.210938 C 10.667969 13.511719 10.683594 13.570312 10.742188 13.570312 C 10.78125 13.570312 10.792969 13.617188 10.792969 13.78125 C 10.792969 13.9375 10.78125 13.992188 10.742188 13.992188 C 10.691406 13.992188 10.640625 14.085938 10.667969 14.132812 C 10.679688 14.148438 10.6875 14.300781 10.691406 14.476562 C 10.695312 14.761719 10.6875 14.800781 10.617188 14.871094 C 10.558594 14.929688 10.542969 14.976562 10.558594 15.0625 C 10.574219 15.167969 10.5625 15.183594 10.371094 15.3125 C 10.25 15.390625 10.117188 15.519531 10.054688 15.617188 C 9.996094 15.707031 9.917969 15.789062 9.886719 15.800781 C 9.851562 15.8125 9.773438 15.894531 9.707031 15.980469 C 9.636719 16.074219 9.566406 16.132812 9.539062 16.121094 C 9.515625 16.113281 9.445312 16.132812 9.386719 16.164062 C 9.296875 16.214844 9.285156 16.238281 9.300781 16.320312 C 9.320312 16.410156 9.316406 16.417969 9.203125 16.417969 C 9.046875 16.417969 9.015625 16.484375 8.972656 16.910156 C 8.945312 17.1875 8.9375 17.214844 8.929688 17.070312 Z M 11.628906 23.851562 L 11.617188 24.554688 L 10.242188 24.566406 C 9.484375 24.570312 8.855469 24.5625 8.84375 24.546875 C 8.835938 24.527344 8.835938 23.695312 8.851562 22.691406 C 8.863281 21.6875 8.882812 20.914062 8.898438 20.96875 C 8.917969 21.066406 8.921875 21.0625 8.929688 20.917969 C 8.9375 20.78125 8.945312 20.800781 8.980469 21.046875 C 9 21.207031 9.03125 21.347656 9.042969 21.359375 C 9.054688 21.371094 9.117188 21.394531 9.179688 21.40625 C 9.269531 21.425781 9.300781 21.453125 9.320312 21.535156 C 9.34375 21.613281 9.378906 21.648438 9.472656 21.675781 C 9.542969 21.699219 9.609375 21.703125 9.617188 21.6875 C 9.628906 21.671875 9.679688 21.675781 9.730469 21.699219 C 9.824219 21.734375 10.160156 21.777344 10.660156 21.820312 C 10.832031 21.832031 10.898438 21.851562 10.898438 21.886719 C 10.898438 21.914062 10.867188 21.9375 10.824219 21.9375 C 10.714844 21.9375 10.761719 22.015625 10.902344 22.0625 C 11.082031 22.128906 11.203125 22.121094 11.28125 22.039062 C 11.320312 21.996094 11.398438 21.964844 11.472656 21.960938 L 11.59375 21.953125 L 11.617188 22.550781 C 11.628906 22.882812 11.636719 23.46875 11.628906 23.851562 Z M 27.382812 13.472656 C 27.335938 13.589844 27.320312 13.589844 27.226562 13.5 C 27.191406 13.457031 27.097656 13.375 27.023438 13.316406 C 26.894531 13.210938 26.890625 13.199219 26.910156 13.046875 C 26.9375 12.863281 26.9375 12.816406 26.921875 12.148438 C 26.914062 11.75 26.921875 11.632812 26.96875 11.546875 C 27 11.492188 27.042969 11.347656 27.066406 11.234375 C 27.09375 11.117188 27.125 10.984375 27.144531 10.941406 C 27.160156 10.894531 27.175781 10.835938 27.175781 10.800781 C 27.175781 10.769531 27.203125 10.710938 27.238281 10.671875 C 27.34375 10.558594 27.433594 10.113281 27.441406 9.703125 C 27.449219 9.210938 27.445312 9.207031 26.980469 9.226562 C 26.59375 9.238281 26.59375 9.238281 26.945312 9.164062 C 27.082031 9.136719 27.347656 9.078125 27.539062 9.035156 C 27.730469 8.992188 27.898438 8.96875 27.914062 8.988281 C 27.929688 9.003906 27.929688 9.105469 27.914062 9.210938 C 27.898438 9.316406 27.867188 9.554688 27.847656 9.738281 C 27.828125 9.921875 27.769531 10.414062 27.722656 10.828125 C 27.671875 11.242188 27.617188 11.742188 27.59375 11.9375 C 27.511719 12.695312 27.417969 13.382812 27.382812 13.472656 Z M 27.382812 13.472656 "/>
<path style=" stroke:none;fill-rule:nonzero;fill:rgb(15.686275%,83.529413%,54.11765%);fill-opacity:1;" d="M 27.382812 13.472656 C 27.417969 13.382812 27.511719 12.695312 27.59375 11.9375 C 27.617188 11.742188 27.671875 11.242188 27.722656 10.828125 C 27.769531 10.414062 27.828125 9.921875 27.847656 9.738281 C 27.867188 9.554688 27.898438 9.316406 27.914062 9.210938 C 27.929688 9.105469 27.929688 9.003906 27.914062 8.988281 C 27.898438 8.96875 27.730469 8.992188 27.539062 9.035156 C 27.476562 9.050781 27.402344 9.066406 27.332031 9.082031 C 27.421875 9.054688 27.476562 9.023438 27.484375 8.992188 C 27.492188 8.960938 27.546875 8.925781 27.601562 8.914062 C 27.65625 8.902344 27.75 8.886719 27.808594 8.875 C 27.867188 8.863281 27.90625 8.839844 27.894531 8.820312 C 27.859375 8.765625 28.046875 8.785156 28.105469 8.84375 C 28.136719 8.875 28.160156 8.933594 28.160156 8.976562 C 28.160156 9.019531 28.097656 9.550781 28.019531 10.160156 C 27.941406 10.769531 27.757812 12.207031 27.617188 13.351562 C 27.476562 14.5 27.347656 15.449219 27.335938 15.460938 C 27.328125 15.46875 27.226562 15.394531 27.113281 15.289062 C 27.003906 15.183594 26.765625 14.964844 26.585938 14.800781 C 26.402344 14.636719 26.140625 14.390625 26.003906 14.253906 C 25.863281 14.117188 25.703125 13.972656 25.652344 13.933594 L 25.558594 13.859375 L 25.25 14.179688 C 25.082031 14.355469 24.652344 14.808594 24.292969 15.1875 C 23.933594 15.5625 23.460938 16.0625 23.234375 16.292969 C 22.691406 16.859375 21.667969 17.941406 21.324219 18.3125 C 21.171875 18.480469 20.824219 18.84375 20.550781 19.125 C 20.277344 19.40625 19.804688 19.894531 19.496094 20.214844 C 19.1875 20.535156 18.632812 21.105469 18.261719 21.480469 C 17.894531 21.855469 17.472656 22.289062 17.328125 22.445312 C 17.160156 22.617188 17.046875 22.710938 17.019531 22.695312 C 16.996094 22.679688 16.894531 22.570312 16.792969 22.449219 C 16.695312 22.332031 16.425781 22.007812 16.195312 21.734375 C 15.964844 21.457031 15.765625 21.234375 15.746094 21.234375 C 15.730469 21.234375 15.714844 21.210938 15.714844 21.183594 C 15.714844 21.15625 15.671875 21.097656 15.617188 21.050781 C 15.566406 21.007812 15.476562 20.902344 15.417969 20.820312 C 15.363281 20.734375 15.269531 20.628906 15.214844 20.585938 C 15.160156 20.539062 15.117188 20.484375 15.117188 20.464844 C 15.117188 20.445312 15.078125 20.398438 15.03125 20.363281 C 14.980469 20.324219 14.941406 20.277344 14.941406 20.257812 C 14.941406 20.234375 14.90625 20.191406 14.863281 20.15625 C 14.820312 20.121094 14.742188 20.035156 14.695312 19.964844 C 14.644531 19.894531 14.523438 19.746094 14.421875 19.636719 C 14.320312 19.527344 14.238281 19.429688 14.238281 19.414062 C 14.238281 19.398438 14.167969 19.3125 14.078125 19.21875 C 13.992188 19.125 13.921875 19.035156 13.921875 19.015625 C 13.921875 19 13.894531 18.96875 13.859375 18.941406 C 13.824219 18.917969 13.765625 18.847656 13.730469 18.789062 C 13.691406 18.734375 13.609375 18.628906 13.546875 18.5625 C 13.484375 18.496094 13.347656 18.335938 13.25 18.210938 C 13.152344 18.085938 13.039062 17.949219 12.996094 17.90625 C 12.953125 17.863281 12.875 17.765625 12.816406 17.6875 C 12.757812 17.609375 12.699219 17.542969 12.683594 17.542969 C 12.667969 17.542969 12.65625 17.519531 12.65625 17.492188 C 12.65625 17.464844 12.617188 17.410156 12.570312 17.375 C 12.519531 17.335938 12.480469 17.289062 12.480469 17.265625 C 12.480469 17.246094 12.449219 17.207031 12.410156 17.179688 C 12.371094 17.15625 12.347656 17.125 12.355469 17.117188 C 12.367188 17.105469 12.292969 17.015625 12.199219 16.917969 C 12.101562 16.816406 12.023438 16.71875 12.023438 16.699219 C 12.023438 16.679688 11.992188 16.648438 11.953125 16.628906 C 11.882812 16.589844 11.882812 16.601562 11.875 17.726562 C 11.871094 18.351562 11.867188 20.207031 11.867188 21.851562 L 11.867188 24.835938 L 10.292969 24.84375 C 8.980469 24.847656 8.71875 24.839844 8.71875 24.796875 C 8.71875 24.773438 8.707031 24.75 8.691406 24.75 C 8.675781 24.75 8.664062 21.648438 8.664062 17.855469 C 8.664062 11.257812 8.667969 10.960938 8.730469 10.917969 C 8.777344 10.882812 8.78125 10.867188 8.746094 10.851562 C 8.722656 10.84375 8.84375 10.832031 9.015625 10.832031 C 9.234375 10.828125 9.316406 10.839844 9.28125 10.863281 C 9.246094 10.886719 9.480469 10.898438 9.972656 10.898438 C 10.429688 10.898438 10.726562 10.914062 10.742188 10.933594 C 10.753906 10.957031 10.691406 10.96875 10.578125 10.96875 C 10.261719 10.96875 10.40625 10.996094 10.84375 11.019531 C 11.074219 11.03125 11.285156 11.058594 11.308594 11.078125 C 11.34375 11.109375 11.355469 11.105469 11.355469 11.074219 C 11.355469 11.039062 11.367188 11.039062 11.410156 11.074219 C 11.4375 11.097656 11.453125 11.144531 11.445312 11.175781 C 11.433594 11.210938 11.496094 11.308594 11.601562 11.425781 C 11.699219 11.53125 11.777344 11.628906 11.777344 11.644531 C 11.777344 11.6875 11.96875 11.894531 12.109375 12 C 12.1875 12.054688 12.222656 12.09375 12.183594 12.082031 C 12.113281 12.054688 12.265625 12.257812 12.539062 12.550781 C 12.617188 12.636719 12.761719 12.804688 12.855469 12.921875 C 12.949219 13.035156 13.128906 13.25 13.253906 13.398438 C 13.378906 13.542969 13.5 13.691406 13.515625 13.722656 C 13.535156 13.753906 13.574219 13.78125 13.601562 13.789062 C 13.632812 13.792969 13.679688 13.847656 13.710938 13.90625 C 13.742188 13.964844 13.789062 14.003906 13.816406 14 C 13.847656 13.992188 13.859375 13.996094 13.84375 14.011719 C 13.832031 14.023438 13.839844 14.0625 13.863281 14.097656 C 13.945312 14.214844 14.152344 14.464844 14.34375 14.679688 C 14.449219 14.796875 14.601562 14.976562 14.679688 15.078125 C 14.753906 15.179688 14.855469 15.285156 14.898438 15.3125 C 14.941406 15.339844 14.976562 15.382812 14.976562 15.402344 C 14.976562 15.421875 15.027344 15.507812 15.089844 15.585938 C 15.214844 15.75 15.53125 16.078125 15.488281 16 C 15.46875 15.964844 15.472656 15.957031 15.5 15.976562 C 15.523438 15.988281 15.53125 16.015625 15.523438 16.03125 C 15.496094 16.070312 15.75 16.367188 15.808594 16.359375 C 15.832031 16.359375 15.847656 16.371094 15.835938 16.386719 C 15.800781 16.445312 15.890625 16.550781 15.976562 16.550781 C 16.03125 16.550781 16.054688 16.535156 16.042969 16.511719 C 16.027344 16.488281 16.042969 16.492188 16.078125 16.519531 C 16.109375 16.546875 16.136719 16.59375 16.136719 16.625 C 16.136719 16.660156 16.191406 16.753906 16.261719 16.832031 C 16.332031 16.914062 16.371094 16.980469 16.347656 16.980469 C 16.328125 16.980469 16.300781 16.957031 16.289062 16.929688 C 16.277344 16.898438 16.253906 16.875 16.238281 16.875 C 16.21875 16.875 16.246094 16.933594 16.300781 17.003906 C 16.355469 17.070312 16.402344 17.113281 16.410156 17.089844 C 16.429688 17.027344 16.578125 17.042969 16.640625 17.117188 C 16.6875 17.167969 16.695312 17.203125 16.667969 17.273438 C 16.625 17.378906 16.644531 17.457031 16.71875 17.484375 C 16.75 17.496094 16.757812 17.488281 16.746094 17.453125 C 16.722656 17.390625 16.761719 17.386719 16.816406 17.449219 C 16.875 17.511719 16.957031 17.660156 16.921875 17.636719 C 16.902344 17.625 16.886719 17.652344 16.886719 17.695312 C 16.882812 17.738281 16.890625 17.75 16.898438 17.726562 C 16.910156 17.703125 16.929688 17.683594 16.945312 17.683594 C 16.964844 17.683594 16.96875 17.707031 16.957031 17.738281 C 16.9375 17.792969 17 17.894531 17.0625 17.894531 C 17.128906 17.894531 18.917969 16.066406 18.894531 16.023438 C 18.878906 16.003906 18.882812 15.996094 18.902344 16.007812 C 18.933594 16.027344 20.105469 14.878906 20.746094 14.203125 C 20.863281 14.078125 21.230469 13.695312 21.5625 13.359375 C 22.882812 12.007812 23.203125 11.652344 23.203125 11.542969 C 23.203125 11.492188 23.167969 11.445312 23.105469 11.410156 C 23.054688 11.382812 22.953125 11.308594 22.886719 11.246094 C 22.445312 10.832031 22.242188 10.65625 22.21875 10.671875 C 22.1875 10.6875 22.121094 10.617188 22.117188 10.5625 C 22.113281 10.523438 22.078125 10.484375 21.835938 10.253906 C 21.5625 9.992188 21.535156 9.914062 21.722656 9.914062 C 21.796875 9.914062 21.804688 9.90625 21.761719 9.878906 C 21.722656 9.851562 21.734375 9.847656 21.804688 9.863281 C 21.855469 9.875 22.066406 9.859375 22.277344 9.832031 C 22.488281 9.800781 22.78125 9.785156 22.929688 9.789062 C 23.082031 9.796875 23.195312 9.785156 23.183594 9.769531 C 23.160156 9.734375 23.191406 9.730469 23.539062 9.71875 C 23.757812 9.710938 24.914062 9.535156 25.59375 9.402344 C 26.210938 9.285156 26.78125 9.179688 26.929688 9.160156 C 26.96875 9.15625 27.003906 9.148438 27.039062 9.144531 C 27.003906 9.152344 26.972656 9.15625 26.945312 9.164062 C 26.59375 9.238281 26.59375 9.238281 26.980469 9.226562 C 27.445312 9.207031 27.449219 9.210938 27.441406 9.703125 C 27.433594 10.113281 27.34375 10.558594 27.238281 10.671875 C 27.203125 10.710938 27.175781 10.769531 27.175781 10.800781 C 27.175781 10.835938 27.160156 10.894531 27.144531 10.941406 C 27.125 10.984375 27.09375 11.117188 27.066406 11.234375 C 27.042969 11.347656 27 11.492188 26.96875 11.546875 C 26.921875 11.632812 26.914062 11.75 26.921875 12.148438 C 26.9375 12.816406 26.9375 12.863281 26.910156 13.046875 C 26.890625 13.199219 26.894531 13.210938 27.023438 13.316406 C 27.097656 13.375 27.191406 13.457031 27.226562 13.5 C 27.320312 13.589844 27.335938 13.589844 27.382812 13.472656 Z M 17.085938 22.34375 C 17.109375 22.3125 17.140625 22.296875 17.15625 22.308594 C 17.171875 22.316406 17.199219 22.308594 17.210938 22.285156 C 17.226562 22.257812 17.222656 22.253906 17.195312 22.269531 C 17.175781 22.28125 17.15625 22.28125 17.15625 22.265625 C 17.15625 22.242188 17.253906 22.136719 18.121094 21.234375 C 18.683594 20.648438 19.28125 20.003906 19.617188 19.613281 C 19.648438 19.582031 19.761719 19.460938 19.867188 19.34375 C 20.320312 18.859375 20.726562 18.316406 20.640625 18.316406 C 20.621094 18.316406 20.59375 18.332031 20.582031 18.351562 C 20.570312 18.371094 20.496094 18.386719 20.414062 18.386719 C 20.332031 18.386719 20.175781 18.402344 20.058594 18.421875 C 19.933594 18.445312 19.546875 18.453125 19.058594 18.441406 C 18.621094 18.433594 18.207031 18.425781 18.140625 18.421875 C 17.851562 18.417969 17.3125 18.453125 17.160156 18.488281 C 16.894531 18.550781 16.425781 18.597656 16.089844 18.597656 C 15.921875 18.597656 15.75 18.613281 15.707031 18.636719 C 15.65625 18.664062 15.597656 18.664062 15.484375 18.632812 C 15.359375 18.597656 15.296875 18.601562 15.109375 18.648438 C 14.988281 18.683594 14.746094 18.742188 14.566406 18.78125 C 14.40625 18.816406 14.304688 18.835938 14.277344 18.890625 C 14.234375 18.976562 14.371094 19.152344 14.75 19.628906 C 14.769531 19.660156 14.792969 19.6875 14.820312 19.71875 C 15.027344 19.988281 15.808594 20.929688 16.113281 21.285156 C 16.191406 21.378906 16.28125 21.488281 16.308594 21.53125 C 16.335938 21.570312 16.375 21.621094 16.398438 21.640625 C 16.492188 21.722656 16.625 21.929688 16.601562 21.953125 C 16.589844 21.972656 16.59375 21.972656 16.617188 21.960938 C 16.664062 21.933594 16.828125 22.132812 16.8125 22.191406 C 16.808594 22.207031 16.820312 22.214844 16.839844 22.199219 C 16.863281 22.1875 16.894531 22.222656 16.917969 22.285156 C 16.964844 22.40625 17.019531 22.421875 17.085938 22.34375 Z M 8.929688 17.070312 C 8.9375 17.214844 8.945312 17.1875 8.972656 16.910156 C 9.015625 16.484375 9.046875 16.417969 9.203125 16.417969 C 9.316406 16.417969 9.320312 16.410156 9.300781 16.320312 C 9.285156 16.238281 9.296875 16.214844 9.386719 16.164062 C 9.445312 16.132812 9.515625 16.113281 9.539062 16.121094 C 9.566406 16.132812 9.636719 16.074219 9.707031 15.980469 C 9.773438 15.894531 9.851562 15.8125 9.886719 15.800781 C 9.917969 15.789062 9.996094 15.707031 10.054688 15.617188 C 10.117188 15.519531 10.25 15.390625 10.371094 15.3125 C 10.5625 15.183594 10.574219 15.167969 10.558594 15.0625 C 10.542969 14.976562 10.558594 14.929688 10.617188 14.871094 C 10.6875 14.800781 10.695312 14.761719 10.691406 14.476562 C 10.6875 14.300781 10.679688 14.148438 10.667969 14.132812 C 10.640625 14.085938 10.691406 13.992188 10.742188 13.992188 C 10.78125 13.992188 10.792969 13.9375 10.792969 13.78125 C 10.792969 13.617188 10.78125 13.570312 10.742188 13.570312 C 10.683594 13.570312 10.667969 13.511719 10.632812 13.210938 C 10.621094 13.101562 10.59375 12.996094 10.566406 12.976562 C 10.535156 12.949219 10.519531 12.832031 10.515625 12.617188 C 10.507812 12.375 10.492188 12.273438 10.441406 12.1875 C 10.402344 12.125 10.371094 12.035156 10.371094 11.980469 C 10.371094 11.929688 10.355469 11.878906 10.335938 11.863281 C 10.316406 11.851562 10.308594 11.828125 10.320312 11.808594 C 10.332031 11.792969 10.316406 11.769531 10.289062 11.757812 C 10.261719 11.746094 10.230469 11.675781 10.214844 11.597656 C 10.203125 11.511719 10.175781 11.460938 10.140625 11.460938 C 10.0625 11.460938 10.078125 11.34375 10.167969 11.246094 C 10.234375 11.175781 10.308594 11.148438 10.566406 11.113281 C 10.738281 11.089844 10.90625 11.0625 10.933594 11.058594 C 10.960938 11.050781 10.5 11.046875 9.90625 11.042969 L 8.824219 11.039062 L 8.824219 11.945312 C 8.824219 13.628906 8.875 17.351562 8.898438 17.121094 L 8.917969 16.890625 Z M 11.628906 23.851562 C 11.636719 23.46875 11.628906 22.882812 11.617188 22.550781 L 11.59375 21.953125 L 11.472656 21.960938 C 11.398438 21.964844 11.320312 21.996094 11.28125 22.039062 C 11.203125 22.121094 11.082031 22.128906 10.902344 22.0625 C 10.761719 22.015625 10.714844 21.9375 10.824219 21.9375 C 10.867188 21.9375 10.898438 21.914062 10.898438 21.886719 C 10.898438 21.851562 10.832031 21.832031 10.660156 21.820312 C 10.160156 21.777344 9.824219 21.734375 9.730469 21.699219 C 9.679688 21.675781 9.628906 21.671875 9.617188 21.6875 C 9.609375 21.703125 9.542969 21.699219 9.472656 21.675781 C 9.378906 21.648438 9.34375 21.613281 9.320312 21.535156 C 9.300781 21.453125 9.269531 21.425781 9.179688 21.40625 C 9.117188 21.394531 9.054688 21.371094 9.042969 21.359375 C 9.03125 21.347656 9 21.207031 8.980469 21.046875 C 8.945312 20.800781 8.9375 20.78125 8.929688 20.917969 C 8.921875 21.0625 8.917969 21.066406 8.898438 20.96875 C 8.882812 20.914062 8.863281 21.6875 8.851562 22.691406 C 8.835938 23.695312 8.835938 24.527344 8.84375 24.546875 C 8.855469 24.5625 9.484375 24.570312 10.242188 24.566406 L 11.617188 24.554688 Z M 25.503906 24.722656 C 25.429688 24.164062 25.363281 21.007812 25.347656 17.332031 L 25.34375 15.625 L 25.089844 15.890625 C 24.976562 16.011719 24.875 16.117188 24.683594 16.324219 C 24.828125 16.164062 24.929688 16.046875 24.980469 15.984375 C 25.0625 15.882812 25.167969 15.765625 25.21875 15.71875 C 25.308594 15.636719 25.351562 15.546875 25.277344 15.589844 C 25.257812 15.605469 25.253906 15.589844 25.265625 15.558594 C 25.273438 15.527344 25.300781 15.515625 25.320312 15.527344 C 25.34375 15.539062 25.347656 15.53125 25.332031 15.507812 C 25.3125 15.472656 25.523438 15.222656 25.578125 15.222656 C 25.589844 15.222656 25.609375 19.796875 25.609375 23.660156 L 25.609375 24.835938 L 25.4375 24.859375 C 25.339844 24.875 24.539062 24.886719 23.660156 24.886719 L 22.0625 24.890625 L 22.085938 21.863281 L 22.109375 18.832031 L 22.226562 18.714844 C 22.289062 18.648438 22.347656 18.613281 22.351562 18.632812 C 22.363281 18.660156 22.382812 18.660156 22.414062 18.628906 C 22.480469 18.574219 22.480469 18.625 22.414062 18.691406 C 22.382812 18.71875 22.359375 18.757812 22.359375 18.773438 C 22.359375 18.796875 22.867188 18.289062 23.234375 17.898438 C 23.097656 18.050781 22.953125 18.203125 22.832031 18.332031 L 22.335938 18.863281 L 22.308594 21.675781 C 22.296875 23.21875 22.285156 24.523438 22.285156 24.570312 C 22.289062 24.671875 22.351562 24.722656 22.4375 24.695312 C 22.472656 24.683594 22.5 24.691406 22.5 24.710938 C 22.5 24.734375 22.515625 24.75 22.539062 24.75 C 22.558594 24.75 22.566406 24.738281 22.558594 24.722656 C 22.546875 24.707031 22.609375 24.710938 22.695312 24.730469 C 22.78125 24.75 22.851562 24.777344 22.851562 24.792969 C 22.851562 24.808594 22.964844 24.820312 23.101562 24.820312 C 23.257812 24.820312 23.339844 24.808594 23.328125 24.785156 C 23.3125 24.765625 23.367188 24.75 23.464844 24.75 C 23.554688 24.75 23.625 24.765625 23.625 24.785156 C 23.625 24.804688 23.957031 24.824219 24.496094 24.828125 C 24.972656 24.835938 25.398438 24.84375 25.441406 24.847656 C 25.515625 24.855469 25.519531 24.84375 25.503906 24.722656 Z M 27.632812 8.859375 C 27.605469 8.878906 27.554688 8.890625 27.527344 8.890625 C 27.492188 8.890625 27.5 8.878906 27.546875 8.859375 C 27.640625 8.816406 27.695312 8.816406 27.632812 8.859375 Z M 23.933594 17.140625 C 23.855469 17.226562 23.769531 17.320312 23.679688 17.417969 C 23.625 17.480469 23.550781 17.558594 23.472656 17.644531 C 23.585938 17.519531 23.757812 17.332031 23.855469 17.226562 C 23.882812 17.199219 23.90625 17.167969 23.933594 17.140625 Z M 23.933594 17.140625 "/>
<path style=" stroke:none;fill-rule:nonzero;fill:rgb(51.372552%,86.666667%,69.803923%);fill-opacity:1;" d="M 27.632812 8.859375 C 27.640625 8.855469 27.648438 8.847656 27.652344 8.84375 C 27.703125 8.839844 27.738281 8.828125 27.757812 8.820312 C 27.773438 8.8125 27.835938 8.800781 27.898438 8.796875 C 27.890625 8.800781 27.886719 8.808594 27.894531 8.820312 C 27.90625 8.839844 27.867188 8.863281 27.808594 8.875 C 27.75 8.886719 27.65625 8.902344 27.601562 8.914062 C 27.546875 8.925781 27.492188 8.960938 27.484375 8.992188 C 27.476562 9.023438 27.421875 9.054688 27.332031 9.082031 C 27.226562 9.105469 27.121094 9.125 27.039062 9.144531 C 27.003906 9.148438 26.96875 9.15625 26.929688 9.160156 C 26.78125 9.179688 26.210938 9.285156 25.59375 9.402344 C 24.914062 9.535156 23.757812 9.710938 23.539062 9.71875 C 23.191406 9.730469 23.160156 9.734375 23.183594 9.769531 C 23.195312 9.785156 23.082031 9.796875 22.929688 9.789062 C 22.78125 9.785156 22.488281 9.800781 22.277344 9.832031 C 22.066406 9.859375 21.855469 9.875 21.804688 9.863281 C 21.734375 9.847656 21.722656 9.851562 21.761719 9.878906 C 21.804688 9.90625 21.796875 9.914062 21.722656 9.914062 C 21.535156 9.914062 21.5625 9.992188 21.835938 10.253906 C 22.078125 10.484375 22.113281 10.523438 22.117188 10.5625 C 22.121094 10.617188 22.1875 10.6875 22.21875 10.671875 C 22.242188 10.65625 22.445312 10.832031 22.886719 11.246094 C 22.953125 11.308594 23.054688 11.382812 23.105469 11.410156 C 23.167969 11.445312 23.203125 11.492188 23.203125 11.542969 C 23.203125 11.652344 22.882812 12.007812 21.5625 13.359375 C 21.230469 13.695312 20.863281 14.078125 20.746094 14.203125 C 20.105469 14.878906 18.933594 16.027344 18.902344 16.007812 C 18.882812 15.996094 18.878906 16.003906 18.894531 16.023438 C 18.917969 16.066406 17.128906 17.894531 17.0625 17.894531 C 17 17.894531 16.9375 17.792969 16.957031 17.738281 C 16.96875 17.707031 16.964844 17.683594 16.945312 17.683594 C 16.929688 17.683594 16.910156 17.703125 16.898438 17.726562 C 16.890625 17.75 16.882812 17.738281 16.886719 17.695312 C 16.886719 17.652344 16.902344 17.625 16.921875 17.636719 C 16.957031 17.660156 16.875 17.511719 16.816406 17.449219 C 16.761719 17.386719 16.722656 17.390625 16.746094 17.453125 C 16.757812 17.488281 16.75 17.496094 16.71875 17.484375 C 16.644531 17.457031 16.625 17.378906 16.667969 17.273438 C 16.695312 17.203125 16.6875 17.167969 16.640625 17.117188 C 16.578125 17.042969 16.429688 17.027344 16.410156 17.089844 C 16.402344 17.113281 16.355469 17.070312 16.300781 17.003906 C 16.246094 16.933594 16.21875 16.875 16.238281 16.875 C 16.253906 16.875 16.277344 16.898438 16.289062 16.929688 C 16.300781 16.957031 16.328125 16.980469 16.347656 16.980469 C 16.371094 16.980469 16.332031 16.914062 16.261719 16.832031 C 16.191406 16.753906 16.136719 16.660156 16.136719 16.625 C 16.136719 16.59375 16.109375 16.546875 16.078125 16.519531 C 16.042969 16.492188 16.027344 16.488281 16.042969 16.511719 C 16.054688 16.535156 16.03125 16.550781 15.976562 16.550781 C 15.890625 16.550781 15.800781 16.445312 15.835938 16.386719 C 15.847656 16.371094 15.832031 16.359375 15.808594 16.359375 C 15.75 16.367188 15.496094 16.070312 15.523438 16.03125 C 15.53125 16.015625 15.523438 15.988281 15.5 15.976562 C 15.472656 15.957031 15.46875 15.964844 15.488281 16 C 15.53125 16.078125 15.214844 15.75 15.089844 15.585938 C 15.027344 15.507812 14.976562 15.421875 14.976562 15.402344 C 14.976562 15.382812 14.941406 15.339844 14.898438 15.3125 C 14.855469 15.285156 14.753906 15.179688 14.679688 15.078125 C 14.601562 14.976562 14.449219 14.796875 14.34375 14.679688 C 14.152344 14.464844 13.945312 14.214844 13.863281 14.097656 C 13.839844 14.0625 13.832031 14.023438 13.84375 14.011719 C 13.859375 13.996094 13.847656 13.992188 13.816406 14 C 13.789062 14.003906 13.742188 13.964844 13.710938 13.90625 C 13.679688 13.847656 13.632812 13.792969 13.601562 13.789062 C 13.574219 13.78125 13.535156 13.753906 13.515625 13.722656 C 13.5 13.691406 13.378906 13.542969 13.253906 13.398438 C 13.128906 13.25 12.949219 13.035156 12.855469 12.921875 C 12.761719 12.804688 12.617188 12.636719 12.539062 12.550781 C 12.265625 12.257812 12.113281 12.054688 12.183594 12.082031 C 12.222656 12.09375 12.1875 12.054688 12.109375 12 C 11.96875 11.894531 11.777344 11.6875 11.777344 11.644531 C 11.777344 11.628906 11.699219 11.53125 11.601562 11.425781 C 11.496094 11.308594 11.433594 11.210938 11.445312 11.175781 C 11.453125 11.144531 11.4375 11.097656 11.410156 11.074219 C 11.367188 11.039062 11.355469 11.039062 11.355469 11.074219 C 11.355469 11.105469 11.34375 11.109375 11.308594 11.078125 C 11.285156 11.058594 11.074219 11.03125 10.84375 11.019531 C 10.40625 10.996094 10.261719 10.96875 10.578125 10.96875 C 10.691406 10.96875 10.753906 10.957031 10.742188 10.933594 C 10.726562 10.914062 10.429688 10.898438 9.972656 10.898438 C 9.480469 10.898438 9.246094 10.886719 9.28125 10.863281 C 9.289062 10.855469 9.292969 10.851562 9.285156 10.847656 C 9.597656 10.855469 10.082031 10.859375 10.496094 10.859375 L 11.449219 10.863281 L 11.761719 11.242188 C 12.019531 11.550781 13.886719 13.738281 14.570312 14.53125 C 14.667969 14.644531 14.8125 14.8125 14.890625 14.902344 C 15.164062 15.230469 15.421875 15.535156 15.960938 16.160156 C 16.261719 16.507812 16.648438 16.960938 16.820312 17.167969 C 16.996094 17.375 17.144531 17.527344 17.148438 17.511719 C 17.152344 17.496094 17.625 17.019531 18.191406 16.453125 C 18.761719 15.886719 19.222656 15.40625 19.21875 15.386719 C 19.214844 15.367188 19.253906 15.332031 19.300781 15.304688 C 19.347656 15.277344 19.386719 15.242188 19.382812 15.226562 C 19.378906 15.210938 19.824219 14.757812 20.375 14.222656 C 20.925781 13.6875 21.367188 13.234375 21.359375 13.21875 C 21.347656 13.203125 21.609375 12.933594 21.9375 12.621094 C 22.269531 12.304688 22.527344 12.039062 22.519531 12.03125 C 22.507812 12.019531 22.535156 11.996094 22.574219 11.972656 C 22.617188 11.953125 22.644531 11.925781 22.636719 11.910156 C 22.628906 11.898438 22.707031 11.796875 22.8125 11.691406 L 23.003906 11.5 L 22.640625 11.109375 C 22.445312 10.898438 22.261719 10.722656 22.234375 10.722656 C 22.210938 10.722656 22.089844 10.609375 21.964844 10.472656 C 21.84375 10.335938 21.707031 10.207031 21.664062 10.191406 C 21.617188 10.175781 21.589844 10.144531 21.601562 10.125 C 21.617188 10.105469 21.605469 10.089844 21.578125 10.089844 C 21.519531 10.089844 21.371094 9.929688 21.398438 9.902344 C 21.410156 9.890625 21.457031 9.890625 21.503906 9.902344 C 21.550781 9.914062 21.585938 9.90625 21.585938 9.882812 C 21.585938 9.84375 21.625 9.839844 21.875 9.839844 C 21.949219 9.839844 22.007812 9.824219 22.007812 9.808594 C 22.007812 9.789062 22.054688 9.785156 22.113281 9.796875 C 22.179688 9.808594 22.21875 9.804688 22.21875 9.777344 C 22.21875 9.75 22.25 9.746094 22.304688 9.757812 C 22.363281 9.773438 22.394531 9.765625 22.394531 9.738281 C 22.394531 9.707031 22.429688 9.699219 22.5 9.714844 C 22.5625 9.726562 22.605469 9.722656 22.605469 9.699219 C 22.605469 9.675781 22.644531 9.671875 22.710938 9.6875 C 22.769531 9.699219 22.816406 9.695312 22.816406 9.679688 C 22.816406 9.660156 22.90625 9.648438 23.011719 9.644531 C 23.125 9.644531 23.222656 9.625 23.234375 9.601562 C 23.25 9.578125 23.289062 9.570312 23.320312 9.582031 C 23.351562 9.59375 23.402344 9.585938 23.433594 9.5625 C 23.460938 9.539062 23.515625 9.527344 23.554688 9.539062 C 23.59375 9.546875 23.632812 9.539062 23.644531 9.519531 C 23.65625 9.503906 23.703125 9.496094 23.75 9.507812 C 23.792969 9.519531 23.84375 9.511719 23.855469 9.492188 C 23.867188 9.472656 23.90625 9.464844 23.945312 9.476562 C 23.984375 9.488281 24.039062 9.480469 24.0625 9.457031 C 24.089844 9.433594 24.144531 9.425781 24.183594 9.4375 C 24.222656 9.449219 24.261719 9.441406 24.273438 9.421875 C 24.285156 9.402344 24.335938 9.394531 24.382812 9.40625 C 24.4375 9.421875 24.46875 9.414062 24.46875 9.386719 C 24.46875 9.359375 24.503906 9.355469 24.574219 9.367188 C 24.644531 9.386719 24.679688 9.378906 24.679688 9.351562 C 24.679688 9.324219 24.707031 9.316406 24.75 9.328125 C 24.789062 9.335938 24.828125 9.328125 24.839844 9.3125 C 24.851562 9.292969 24.90625 9.289062 24.964844 9.300781 C 25.03125 9.3125 25.066406 9.308594 25.066406 9.28125 C 25.066406 9.257812 25.109375 9.25 25.1875 9.265625 C 25.273438 9.28125 25.3125 9.277344 25.3125 9.246094 C 25.3125 9.222656 25.339844 9.214844 25.382812 9.230469 C 25.425781 9.242188 25.480469 9.234375 25.507812 9.210938 C 25.535156 9.1875 25.582031 9.175781 25.609375 9.1875 C 25.636719 9.199219 25.671875 9.195312 25.683594 9.175781 C 25.691406 9.15625 25.75 9.152344 25.804688 9.164062 C 25.875 9.175781 25.910156 9.171875 25.910156 9.144531 C 25.910156 9.117188 25.9375 9.109375 25.976562 9.121094 C 26.015625 9.132812 26.054688 9.125 26.070312 9.105469 C 26.082031 9.082031 26.132812 9.074219 26.195312 9.089844 C 26.257812 9.101562 26.296875 9.097656 26.296875 9.074219 C 26.296875 9.050781 26.332031 9.042969 26.382812 9.054688 C 26.441406 9.070312 26.472656 9.0625 26.472656 9.035156 C 26.472656 9.007812 26.507812 9 26.574219 9.015625 C 26.636719 9.03125 26.6875 9.023438 26.703125 9 C 26.714844 8.976562 26.761719 8.96875 26.808594 8.980469 C 26.851562 8.992188 26.902344 8.984375 26.914062 8.960938 C 26.925781 8.941406 26.972656 8.933594 27.019531 8.945312 C 27.0625 8.957031 27.113281 8.949219 27.125 8.929688 C 27.136719 8.90625 27.191406 8.898438 27.25 8.914062 C 27.308594 8.925781 27.351562 8.921875 27.351562 8.902344 C 27.351562 8.882812 27.386719 8.863281 27.429688 8.863281 C 27.476562 8.859375 27.519531 8.859375 27.554688 8.855469 C 27.550781 8.855469 27.546875 8.859375 27.546875 8.859375 C 27.5 8.878906 27.492188 8.890625 27.527344 8.890625 C 27.554688 8.890625 27.605469 8.878906 27.632812 8.859375 Z M 28.210938 33.425781 C 27.933594 33.472656 26.789062 33.480469 18.140625 33.488281 C 12.773438 33.492188 8.25 33.480469 8.085938 33.46875 C 7.78125 33.441406 7.246094 33.34375 7.214844 33.3125 C 7.167969 33.265625 7.25 33.273438 7.539062 33.339844 L 7.859375 33.414062 L 28 33.414062 L 28.371094 33.339844 C 28.574219 33.296875 28.769531 33.253906 28.800781 33.238281 C 28.835938 33.226562 28.863281 33.230469 28.863281 33.25 C 28.863281 33.292969 28.640625 33.351562 28.210938 33.425781 Z M 25.609375 24.101562 L 25.609375 23.660156 C 25.609375 19.796875 25.589844 15.222656 25.578125 15.222656 C 25.523438 15.222656 25.3125 15.472656 25.332031 15.507812 C 25.347656 15.53125 25.34375 15.539062 25.320312 15.527344 C 25.300781 15.515625 25.273438 15.527344 25.265625 15.558594 C 25.253906 15.589844 25.257812 15.605469 25.277344 15.589844 C 25.351562 15.546875 25.308594 15.636719 25.21875 15.71875 C 25.167969 15.765625 25.0625 15.882812 24.980469 15.984375 C 24.929688 16.046875 24.828125 16.164062 24.683594 16.324219 C 24.523438 16.5 24.292969 16.75 23.933594 17.140625 C 23.90625 17.167969 23.882812 17.199219 23.855469 17.226562 C 23.757812 17.332031 23.585938 17.519531 23.472656 17.644531 C 23.398438 17.722656 23.316406 17.8125 23.234375 17.898438 C 22.867188 18.289062 22.359375 18.796875 22.359375 18.773438 C 22.359375 18.757812 22.382812 18.71875 22.414062 18.691406 C 22.480469 18.625 22.480469 18.574219 22.414062 18.628906 C 22.382812 18.660156 22.363281 18.660156 22.351562 18.632812 C 22.347656 18.613281 22.289062 18.648438 22.226562 18.714844 L 22.109375 18.832031 L 22.085938 21.863281 L 22.0625 24.886719 L 22.070312 21.847656 C 22.074219 19.25 22.085938 18.789062 22.128906 18.742188 C 22.15625 18.710938 22.179688 18.675781 22.183594 18.660156 C 22.183594 18.644531 22.261719 18.5625 22.359375 18.472656 C 22.457031 18.382812 22.527344 18.296875 22.519531 18.28125 C 22.511719 18.269531 22.683594 18.089844 22.90625 17.878906 C 23.128906 17.671875 23.300781 17.488281 23.289062 17.472656 C 23.28125 17.457031 23.398438 17.328125 23.554688 17.191406 C 23.707031 17.050781 23.824219 16.921875 23.816406 16.90625 C 23.804688 16.890625 23.820312 16.875 23.851562 16.875 C 23.886719 16.875 23.902344 16.859375 23.890625 16.84375 C 23.878906 16.828125 24.003906 16.6875 24.167969 16.539062 C 24.332031 16.390625 24.457031 16.253906 24.449219 16.238281 C 24.441406 16.226562 24.59375 16.066406 24.785156 15.890625 C 24.980469 15.710938 25.128906 15.554688 25.117188 15.546875 C 25.089844 15.515625 25.496094 15.117188 25.550781 15.117188 C 25.578125 15.117188 25.585938 15.101562 25.574219 15.078125 C 25.558594 15.050781 25.5625 15.046875 25.589844 15.0625 C 25.640625 15.09375 25.644531 21.820312 25.609375 24.101562 Z M 8.867188 10.835938 C 8.78125 10.839844 8.730469 10.84375 8.746094 10.851562 C 8.78125 10.867188 8.777344 10.882812 8.730469 10.917969 C 8.667969 10.960938 8.664062 11.257812 8.664062 17.855469 C 8.664062 21.648438 8.675781 24.75 8.691406 24.75 C 8.707031 24.75 8.71875 24.773438 8.71875 24.796875 C 8.71875 24.839844 8.980469 24.847656 10.292969 24.84375 L 11.867188 24.835938 L 10.238281 24.84375 L 8.613281 24.847656 L 8.613281 10.828125 Z M 2.492188 27.40625 C 2.511719 27.636719 2.519531 27.832031 2.515625 27.835938 C 2.460938 27.890625 2.390625 27.113281 2.398438 26.59375 L 2.402344 26.242188 L 2.429688 26.613281 C 2.445312 26.816406 2.476562 27.171875 2.492188 27.40625 Z M 8.242188 2.070312 C 8.011719 2.09375 7.773438 2.121094 7.71875 2.132812 C 7.640625 2.148438 7.621094 2.140625 7.648438 2.113281 C 7.6875 2.074219 8.226562 2.003906 8.523438 2.003906 C 8.800781 2.003906 8.695312 2.027344 8.242188 2.070312 Z M 2.449219 8.472656 C 2.4375 8.75 2.417969 8.984375 2.410156 8.992188 C 2.398438 9.003906 2.390625 8.789062 2.390625 8.515625 C 2.390625 8.179688 2.402344 8.011719 2.429688 7.996094 C 2.460938 7.976562 2.464844 8.101562 2.449219 8.472656 Z M 28.351562 2.113281 C 28.386719 2.144531 28.300781 2.148438 28.1875 2.121094 C 28.152344 2.113281 27.917969 2.082031 27.660156 2.058594 C 27.304688 2.023438 27.246094 2.011719 27.414062 2.007812 C 27.703125 2.003906 28.308594 2.070312 28.351562 2.113281 Z M 2.542969 7.269531 C 2.53125 7.371094 2.507812 7.453125 2.488281 7.453125 C 2.46875 7.453125 2.464844 7.410156 2.472656 7.355469 C 2.484375 7.304688 2.503906 7.183594 2.515625 7.09375 C 2.527344 7 2.554688 6.925781 2.574219 6.925781 C 2.59375 6.925781 2.601562 6.960938 2.589844 7.003906 C 2.578125 7.046875 2.554688 7.167969 2.542969 7.269531 Z M 33.535156 27.652344 C 33.53125 27.796875 33.484375 27.988281 33.460938 27.964844 C 33.429688 27.933594 33.464844 27.664062 33.507812 27.617188 C 33.527344 27.597656 33.539062 27.609375 33.535156 27.652344 Z M 7.152344 33.261719 C 7.199219 33.304688 7.117188 33.296875 6.945312 33.246094 C 6.863281 33.222656 6.820312 33.191406 6.84375 33.179688 C 6.882812 33.152344 7.09375 33.210938 7.152344 33.261719 Z M 29.164062 33.1875 C 29.003906 33.246094 28.898438 33.265625 28.898438 33.234375 C 28.898438 33.199219 29.214844 33.105469 29.242188 33.132812 C 29.25 33.140625 29.21875 33.167969 29.164062 33.1875 Z M 6.625 2.40625 C 6.476562 2.46875 6.433594 2.472656 6.433594 2.429688 C 6.433594 2.398438 6.71875 2.3125 6.742188 2.335938 C 6.75 2.34375 6.699219 2.375 6.625 2.40625 Z M 2.578125 28.082031 C 2.59375 28.164062 2.589844 28.230469 2.570312 28.230469 C 2.539062 28.230469 2.488281 27.945312 2.515625 27.917969 C 2.542969 27.890625 2.554688 27.925781 2.578125 28.082031 Z M 28.160156 8.953125 C 28.152344 8.914062 28.128906 8.871094 28.105469 8.84375 C 28.074219 8.816406 28.015625 8.796875 27.964844 8.789062 C 28.027344 8.78125 28.082031 8.761719 28.097656 8.742188 C 28.113281 8.714844 28.132812 8.710938 28.160156 8.738281 C 28.167969 8.75 28.167969 8.820312 28.160156 8.953125 Z M 7.398438 2.175781 C 7.351562 2.21875 7.136719 2.253906 7.136719 2.21875 C 7.136719 2.203125 7.1875 2.179688 7.246094 2.167969 C 7.398438 2.136719 7.4375 2.136719 7.398438 2.175781 Z M 33.34375 28.699219 C 33.332031 28.75 33.304688 28.792969 33.285156 28.792969 C 33.253906 28.792969 33.277344 28.621094 33.3125 28.585938 C 33.347656 28.550781 33.363281 28.617188 33.34375 28.699219 Z M 2.496094 7.679688 C 2.496094 7.726562 2.480469 7.773438 2.460938 7.789062 C 2.441406 7.800781 2.425781 7.765625 2.425781 7.703125 C 2.425781 7.640625 2.441406 7.59375 2.460938 7.59375 C 2.480469 7.59375 2.496094 7.632812 2.496094 7.679688 Z M 2.726562 28.730469 C 2.742188 28.796875 2.734375 28.828125 2.707031 28.828125 C 2.683594 28.828125 2.671875 28.804688 2.683594 28.78125 C 2.691406 28.753906 2.683594 28.714844 2.664062 28.691406 C 2.640625 28.671875 2.632812 28.644531 2.648438 28.628906 C 2.679688 28.597656 2.695312 28.617188 2.726562 28.730469 Z M 33.199219 29.171875 C 33.1875 29.214844 33.164062 29.25 33.144531 29.25 C 33.117188 29.25 33.136719 29.117188 33.175781 29.078125 C 33.203125 29.042969 33.21875 29.101562 33.199219 29.171875 Z M 28.5625 2.144531 C 28.578125 2.164062 28.554688 2.179688 28.515625 2.179688 C 28.476562 2.179688 28.4375 2.164062 28.421875 2.144531 C 28.410156 2.125 28.433594 2.109375 28.472656 2.109375 C 28.511719 2.109375 28.550781 2.125 28.5625 2.144531 Z M 33.503906 7.3125 C 33.503906 7.351562 33.488281 7.382812 33.46875 7.382812 C 33.449219 7.382812 33.433594 7.351562 33.433594 7.3125 C 33.433594 7.273438 33.449219 7.242188 33.46875 7.242188 C 33.488281 7.242188 33.503906 7.273438 33.503906 7.3125 Z M 33.539062 7.59375 C 33.539062 7.632812 33.523438 7.664062 33.503906 7.664062 C 33.484375 7.664062 33.46875 7.632812 33.46875 7.59375 C 33.46875 7.554688 33.484375 7.523438 33.503906 7.523438 C 33.523438 7.523438 33.539062 7.554688 33.539062 7.59375 Z M 28.722656 2.179688 C 28.765625 2.207031 28.761719 2.214844 28.695312 2.214844 C 28.652344 2.214844 28.617188 2.199219 28.617188 2.179688 C 28.617188 2.136719 28.65625 2.136719 28.722656 2.179688 Z M 2.636719 6.804688 C 2.636719 6.832031 2.621094 6.855469 2.601562 6.855469 C 2.582031 6.855469 2.566406 6.832031 2.566406 6.804688 C 2.566406 6.773438 2.582031 6.75 2.601562 6.75 C 2.621094 6.75 2.636719 6.773438 2.636719 6.804688 Z M 33.328125 6.503906 C 33.328125 6.523438 33.3125 6.539062 33.292969 6.539062 C 33.273438 6.539062 33.257812 6.523438 33.257812 6.503906 C 33.257812 6.484375 33.273438 6.46875 33.292969 6.46875 C 33.3125 6.46875 33.328125 6.484375 33.328125 6.503906 Z M 33.292969 28.898438 C 33.292969 28.917969 33.277344 28.933594 33.257812 28.933594 C 33.238281 28.933594 33.222656 28.917969 33.222656 28.898438 C 33.222656 28.878906 33.238281 28.863281 33.257812 28.863281 C 33.277344 28.863281 33.292969 28.878906 33.292969 28.898438 Z M 33.257812 29.003906 C 33.257812 29.023438 33.242188 29.039062 33.222656 29.039062 C 33.203125 29.039062 33.1875 29.023438 33.1875 29.003906 C 33.1875 28.984375 33.203125 28.96875 33.222656 28.96875 C 33.242188 28.96875 33.257812 28.984375 33.257812 29.003906 Z M 23.09375 24.886719 L 22.0625 24.894531 L 22.0625 24.890625 Z M 25.585938 24.84375 C 25.582031 24.847656 25.546875 24.851562 25.492188 24.855469 L 25.585938 24.839844 C 25.585938 24.84375 25.585938 24.84375 25.585938 24.84375 Z M 27.984375 10.429688 C 27.886719 11.195312 27.738281 12.382812 27.621094 13.335938 C 27.582031 13.625 27.546875 13.902344 27.515625 14.152344 C 27.546875 13.90625 27.582031 13.636719 27.617188 13.351562 C 27.742188 12.351562 27.894531 11.128906 27.984375 10.429688 Z M 27.984375 10.429688 "/>
<path style=" stroke:none;fill-rule:nonzero;fill:rgb(99.607843%,99.607843%,99.607843%);fill-opacity:1;" d="M 0 18 L 0 0 L 36 0 L 36 36 L 0 36 Z M 28.210938 33.425781 C 28.640625 33.351562 28.863281 33.292969 28.863281 33.25 C 28.863281 33.230469 28.835938 33.226562 28.800781 33.238281 C 28.769531 33.253906 28.574219 33.296875 28.371094 33.339844 L 28 33.414062 L 7.859375 33.414062 L 7.539062 33.339844 C 7.25 33.273438 7.167969 33.265625 7.214844 33.3125 C 7.246094 33.34375 7.78125 33.441406 8.085938 33.46875 C 8.25 33.480469 12.773438 33.492188 18.140625 33.488281 C 26.789062 33.480469 27.933594 33.472656 28.210938 33.425781 Z M 7.152344 33.261719 C 7.09375 33.210938 6.882812 33.152344 6.84375 33.179688 C 6.820312 33.191406 6.863281 33.222656 6.945312 33.246094 C 7.117188 33.296875 7.199219 33.304688 7.152344 33.261719 Z M 29.164062 33.1875 C 29.21875 33.167969 29.25 33.140625 29.242188 33.132812 C 29.214844 33.105469 28.898438 33.199219 28.898438 33.234375 C 28.898438 33.265625 29.003906 33.246094 29.164062 33.1875 Z M 33.199219 29.171875 C 33.21875 29.101562 33.203125 29.042969 33.175781 29.078125 C 33.136719 29.117188 33.117188 29.25 33.144531 29.25 C 33.164062 29.25 33.1875 29.214844 33.199219 29.171875 Z M 33.257812 29.003906 C 33.257812 28.984375 33.242188 28.96875 33.222656 28.96875 C 33.203125 28.96875 33.1875 28.984375 33.1875 29.003906 C 33.1875 29.023438 33.203125 29.039062 33.222656 29.039062 C 33.242188 29.039062 33.257812 29.023438 33.257812 29.003906 Z M 33.292969 28.898438 C 33.292969 28.878906 33.277344 28.863281 33.257812 28.863281 C 33.238281 28.863281 33.222656 28.878906 33.222656 28.898438 C 33.222656 28.917969 33.238281 28.933594 33.257812 28.933594 C 33.277344 28.933594 33.292969 28.917969 33.292969 28.898438 Z M 2.726562 28.730469 C 2.695312 28.617188 2.679688 28.597656 2.648438 28.628906 C 2.632812 28.644531 2.640625 28.671875 2.664062 28.691406 C 2.683594 28.714844 2.691406 28.753906 2.683594 28.78125 C 2.671875 28.804688 2.683594 28.828125 2.707031 28.828125 C 2.734375 28.828125 2.742188 28.796875 2.726562 28.730469 Z M 33.34375 28.699219 C 33.363281 28.617188 33.347656 28.550781 33.3125 28.585938 C 33.277344 28.621094 33.253906 28.792969 33.285156 28.792969 C 33.304688 28.792969 33.332031 28.75 33.34375 28.699219 Z M 2.578125 28.082031 C 2.554688 27.925781 2.542969 27.890625 2.515625 27.917969 C 2.488281 27.945312 2.539062 28.230469 2.570312 28.230469 C 2.589844 28.230469 2.59375 28.164062 2.578125 28.082031 Z M 33.535156 27.652344 C 33.539062 27.609375 33.527344 27.597656 33.507812 27.617188 C 33.464844 27.664062 33.429688 27.933594 33.460938 27.964844 C 33.484375 27.988281 33.53125 27.796875 33.535156 27.652344 Z M 2.492188 27.40625 C 2.476562 27.171875 2.445312 26.816406 2.429688 26.613281 L 2.402344 26.242188 L 2.398438 26.59375 C 2.390625 27.113281 2.460938 27.890625 2.515625 27.835938 C 2.519531 27.832031 2.511719 27.636719 2.492188 27.40625 Z M 25.585938 24.84375 C 25.648438 24.804688 25.648438 15.097656 25.589844 15.0625 C 25.5625 15.046875 25.558594 15.050781 25.574219 15.078125 C 25.585938 15.101562 25.578125 15.117188 25.550781 15.117188 C 25.496094 15.117188 25.089844 15.515625 25.117188 15.546875 C 25.128906 15.554688 24.980469 15.710938 24.785156 15.890625 C 24.59375 16.066406 24.441406 16.226562 24.449219 16.238281 C 24.457031 16.253906 24.332031 16.390625 24.167969 16.539062 C 24.003906 16.6875 23.878906 16.828125 23.890625 16.84375 C 23.902344 16.859375 23.886719 16.875 23.851562 16.875 C 23.820312 16.875 23.804688 16.890625 23.816406 16.90625 C 23.824219 16.921875 23.707031 17.050781 23.554688 17.191406 C 23.398438 17.328125 23.28125 17.457031 23.289062 17.472656 C 23.300781 17.488281 23.128906 17.671875 22.90625 17.878906 C 22.683594 18.089844 22.511719 18.269531 22.519531 18.28125 C 22.527344 18.296875 22.457031 18.382812 22.359375 18.472656 C 22.261719 18.5625 22.183594 18.644531 22.183594 18.660156 C 22.179688 18.675781 22.15625 18.710938 22.128906 18.742188 C 22.085938 18.789062 22.074219 19.25 22.070312 21.847656 L 22.0625 24.894531 L 23.800781 24.882812 C 24.757812 24.878906 25.5625 24.859375 25.585938 24.84375 Z M 11.867188 21.851562 C 11.867188 20.207031 11.871094 18.351562 11.875 17.726562 C 11.882812 16.601562 11.882812 16.589844 11.953125 16.628906 C 11.992188 16.648438 12.023438 16.679688 12.023438 16.699219 C 12.023438 16.71875 12.101562 16.816406 12.199219 16.917969 C 12.292969 17.015625 12.367188 17.105469 12.355469 17.117188 C 12.347656 17.125 12.371094 17.15625 12.410156 17.179688 C 12.449219 17.207031 12.480469 17.246094 12.480469 17.265625 C 12.480469 17.289062 12.519531 17.335938 12.570312 17.375 C 12.617188 17.410156 12.65625 17.464844 12.65625 17.492188 C 12.65625 17.519531 12.667969 17.542969 12.683594 17.542969 C 12.699219 17.542969 12.757812 17.609375 12.816406 17.6875 C 12.875 17.765625 12.953125 17.863281 12.996094 17.90625 C 13.039062 17.949219 13.152344 18.085938 13.25 18.210938 C 13.347656 18.335938 13.484375 18.496094 13.546875 18.5625 C 13.609375 18.628906 13.691406 18.734375 13.730469 18.789062 C 13.765625 18.847656 13.824219 18.917969 13.859375 18.941406 C 13.894531 18.96875 13.921875 19 13.921875 19.015625 C 13.921875 19.035156 13.992188 19.125 14.078125 19.21875 C 14.167969 19.3125 14.238281 19.398438 14.238281 19.414062 C 14.238281 19.429688 14.320312 19.527344 14.421875 19.636719 C 14.523438 19.746094 14.644531 19.894531 14.695312 19.964844 C 14.742188 20.035156 14.820312 20.121094 14.863281 20.15625 C 14.90625 20.191406 14.941406 20.234375 14.941406 20.257812 C 14.941406 20.277344 14.980469 20.324219 15.03125 20.363281 C 15.078125 20.398438 15.117188 20.445312 15.117188 20.464844 C 15.117188 20.484375 15.160156 20.539062 15.214844 20.585938 C 15.269531 20.628906 15.363281 20.734375 15.417969 20.820312 C 15.476562 20.902344 15.566406 21.007812 15.617188 21.050781 C 15.671875 21.097656 15.714844 21.15625 15.714844 21.183594 C 15.714844 21.210938 15.730469 21.234375 15.746094 21.234375 C 15.765625 21.234375 15.964844 21.457031 16.195312 21.734375 C 16.425781 22.007812 16.695312 22.332031 16.792969 22.449219 C 16.894531 22.570312 16.996094 22.679688 17.019531 22.695312 C 17.046875 22.710938 17.160156 22.617188 17.328125 22.445312 C 17.472656 22.289062 17.894531 21.855469 18.261719 21.480469 C 18.632812 21.105469 19.1875 20.535156 19.496094 20.214844 C 19.804688 19.894531 20.277344 19.40625 20.550781 19.125 C 20.824219 18.84375 21.171875 18.480469 21.324219 18.3125 C 21.667969 17.941406 22.691406 16.859375 23.234375 16.292969 C 23.460938 16.0625 23.933594 15.5625 24.292969 15.1875 C 24.652344 14.808594 25.082031 14.355469 25.25 14.179688 L 25.558594 13.859375 L 25.652344 13.933594 C 25.703125 13.972656 25.863281 14.117188 26.003906 14.253906 C 26.140625 14.390625 26.402344 14.636719 26.585938 14.800781 C 26.765625 14.964844 27.003906 15.183594 27.113281 15.289062 C 27.226562 15.394531 27.328125 15.46875 27.335938 15.460938 C 27.347656 15.449219 27.476562 14.492188 27.621094 13.335938 C 27.761719 12.179688 27.949219 10.679688 28.039062 10.003906 C 28.148438 9.148438 28.183594 8.765625 28.160156 8.738281 C 28.132812 8.710938 28.113281 8.714844 28.097656 8.742188 C 28.082031 8.765625 28.007812 8.789062 27.929688 8.792969 C 27.855469 8.796875 27.773438 8.808594 27.757812 8.820312 C 27.722656 8.839844 27.609375 8.855469 27.429688 8.863281 C 27.386719 8.863281 27.351562 8.882812 27.351562 8.902344 C 27.351562 8.921875 27.308594 8.925781 27.25 8.914062 C 27.191406 8.898438 27.136719 8.90625 27.125 8.929688 C 27.113281 8.949219 27.0625 8.957031 27.019531 8.945312 C 26.972656 8.933594 26.925781 8.941406 26.914062 8.960938 C 26.902344 8.984375 26.851562 8.992188 26.808594 8.980469 C 26.761719 8.96875 26.714844 8.976562 26.703125 9 C 26.6875 9.023438 26.636719 9.03125 26.574219 9.015625 C 26.507812 9 26.472656 9.007812 26.472656 9.035156 C 26.472656 9.0625 26.441406 9.070312 26.382812 9.054688 C 26.332031 9.042969 26.296875 9.050781 26.296875 9.074219 C 26.296875 9.097656 26.257812 9.101562 26.195312 9.089844 C 26.132812 9.074219 26.082031 9.082031 26.070312 9.105469 C 26.054688 9.125 26.015625 9.132812 25.976562 9.121094 C 25.9375 9.109375 25.910156 9.117188 25.910156 9.144531 C 25.910156 9.171875 25.875 9.175781 25.804688 9.164062 C 25.75 9.152344 25.691406 9.15625 25.683594 9.175781 C 25.671875 9.195312 25.636719 9.199219 25.609375 9.1875 C 25.582031 9.175781 25.535156 9.1875 25.507812 9.210938 C 25.480469 9.234375 25.425781 9.242188 25.382812 9.230469 C 25.339844 9.214844 25.3125 9.222656 25.3125 9.246094 C 25.3125 9.277344 25.273438 9.28125 25.1875 9.265625 C 25.109375 9.25 25.066406 9.257812 25.066406 9.28125 C 25.066406 9.308594 25.03125 9.3125 24.964844 9.300781 C 24.90625 9.289062 24.851562 9.292969 24.839844 9.3125 C 24.828125 9.328125 24.789062 9.335938 24.75 9.328125 C 24.707031 9.316406 24.679688 9.324219 24.679688 9.351562 C 24.679688 9.378906 24.644531 9.386719 24.574219 9.367188 C 24.503906 9.355469 24.46875 9.359375 24.46875 9.386719 C 24.46875 9.414062 24.4375 9.421875 24.382812 9.40625 C 24.335938 9.394531 24.285156 9.402344 24.273438 9.421875 C 24.261719 9.441406 24.222656 9.449219 24.183594 9.4375 C 24.144531 9.425781 24.089844 9.433594 24.0625 9.457031 C 24.039062 9.480469 23.984375 9.488281 23.945312 9.476562 C 23.90625 9.464844 23.867188 9.472656 23.855469 9.492188 C 23.84375 9.511719 23.792969 9.519531 23.75 9.507812 C 23.703125 9.496094 23.65625 9.503906 23.644531 9.519531 C 23.632812 9.539062 23.59375 9.546875 23.554688 9.539062 C 23.515625 9.527344 23.460938 9.539062 23.433594 9.5625 C 23.402344 9.585938 23.351562 9.59375 23.320312 9.582031 C 23.289062 9.570312 23.25 9.578125 23.234375 9.601562 C 23.222656 9.625 23.125 9.644531 23.011719 9.644531 C 22.90625 9.648438 22.816406 9.660156 22.816406 9.679688 C 22.816406 9.695312 22.769531 9.699219 22.710938 9.6875 C 22.644531 9.671875 22.605469 9.675781 22.605469 9.699219 C 22.605469 9.722656 22.5625 9.726562 22.5 9.714844 C 22.429688 9.699219 22.394531 9.707031 22.394531 9.738281 C 22.394531 9.765625 22.363281 9.773438 22.304688 9.757812 C 22.25 9.746094 22.21875 9.75 22.21875 9.777344 C 22.21875 9.804688 22.179688 9.808594 22.113281 9.796875 C 22.054688 9.785156 22.007812 9.789062 22.007812 9.808594 C 22.007812 9.824219 21.949219 9.839844 21.875 9.839844 C 21.625 9.839844 21.585938 9.84375 21.585938 9.882812 C 21.585938 9.90625 21.550781 9.914062 21.503906 9.902344 C 21.457031 9.890625 21.410156 9.890625 21.398438 9.902344 C 21.371094 9.929688 21.519531 10.089844 21.578125 10.089844 C 21.605469 10.089844 21.617188 10.105469 21.601562 10.125 C 21.589844 10.144531 21.617188 10.175781 21.664062 10.191406 C 21.707031 10.207031 21.84375 10.335938 21.964844 10.472656 C 22.089844 10.609375 22.210938 10.722656 22.234375 10.722656 C 22.261719 10.722656 22.445312 10.898438 22.640625 11.109375 L 23.003906 11.5 L 22.8125 11.691406 C 22.707031 11.796875 22.628906 11.898438 22.636719 11.910156 C 22.644531 11.925781 22.617188 11.953125 22.574219 11.972656 C 22.535156 11.996094 22.507812 12.019531 22.519531 12.03125 C 22.527344 12.039062 22.269531 12.304688 21.9375 12.621094 C 21.609375 12.933594 21.347656 13.203125 21.359375 13.21875 C 21.367188 13.234375 20.925781 13.6875 20.375 14.222656 C 19.824219 14.757812 19.378906 15.210938 19.382812 15.226562 C 19.386719 15.242188 19.347656 15.277344 19.300781 15.304688 C 19.253906 15.332031 19.214844 15.367188 19.21875 15.386719 C 19.222656 15.40625 18.761719 15.886719 18.191406 16.453125 C 17.625 17.019531 17.152344 17.496094 17.148438 17.511719 C 17.144531 17.527344 16.996094 17.375 16.820312 17.167969 C 16.648438 16.960938 16.261719 16.507812 15.960938 16.160156 C 15.421875 15.535156 15.164062 15.230469 14.890625 14.902344 C 14.8125 14.8125 14.667969 14.644531 14.570312 14.53125 C 13.886719 13.738281 12.019531 11.550781 11.761719 11.242188 L 11.449219 10.863281 L 10.496094 10.859375 C 9.972656 10.859375 9.335938 10.851562 9.078125 10.84375 L 8.613281 10.828125 L 8.613281 24.847656 L 10.238281 24.84375 L 11.867188 24.835938 Z M 2.449219 8.472656 C 2.464844 8.101562 2.460938 7.976562 2.429688 7.996094 C 2.402344 8.011719 2.390625 8.179688 2.390625 8.515625 C 2.390625 8.789062 2.398438 9.003906 2.410156 8.992188 C 2.417969 8.984375 2.4375 8.75 2.449219 8.472656 Z M 2.496094 7.679688 C 2.496094 7.632812 2.480469 7.59375 2.460938 7.59375 C 2.441406 7.59375 2.425781 7.640625 2.425781 7.703125 C 2.425781 7.765625 2.441406 7.800781 2.460938 7.789062 C 2.480469 7.773438 2.496094 7.726562 2.496094 7.679688 Z M 33.539062 7.59375 C 33.539062 7.554688 33.523438 7.523438 33.503906 7.523438 C 33.484375 7.523438 33.46875 7.554688 33.46875 7.59375 C 33.46875 7.632812 33.484375 7.664062 33.503906 7.664062 C 33.523438 7.664062 33.539062 7.632812 33.539062 7.59375 Z M 2.542969 7.269531 C 2.554688 7.167969 2.578125 7.046875 2.589844 7.003906 C 2.601562 6.960938 2.59375 6.925781 2.574219 6.925781 C 2.554688 6.925781 2.527344 7 2.515625 7.09375 C 2.503906 7.183594 2.484375 7.304688 2.472656 7.355469 C 2.464844 7.410156 2.46875 7.453125 2.488281 7.453125 C 2.507812 7.453125 2.53125 7.371094 2.542969 7.269531 Z M 33.503906 7.3125 C 33.503906 7.273438 33.488281 7.242188 33.46875 7.242188 C 33.449219 7.242188 33.433594 7.273438 33.433594 7.3125 C 33.433594 7.351562 33.449219 7.382812 33.46875 7.382812 C 33.488281 7.382812 33.503906 7.351562 33.503906 7.3125 Z M 2.636719 6.804688 C 2.636719 6.773438 2.621094 6.75 2.601562 6.75 C 2.582031 6.75 2.566406 6.773438 2.566406 6.804688 C 2.566406 6.832031 2.582031 6.855469 2.601562 6.855469 C 2.621094 6.855469 2.636719 6.832031 2.636719 6.804688 Z M 33.328125 6.503906 C 33.328125 6.484375 33.3125 6.46875 33.292969 6.46875 C 33.273438 6.46875 33.257812 6.484375 33.257812 6.503906 C 33.257812 6.523438 33.273438 6.539062 33.292969 6.539062 C 33.3125 6.539062 33.328125 6.523438 33.328125 6.503906 Z M 6.625 2.40625 C 6.699219 2.375 6.75 2.34375 6.742188 2.335938 C 6.71875 2.3125 6.433594 2.398438 6.433594 2.429688 C 6.433594 2.472656 6.476562 2.46875 6.625 2.40625 Z M 7.398438 2.175781 C 7.4375 2.136719 7.398438 2.136719 7.246094 2.167969 C 7.1875 2.179688 7.136719 2.203125 7.136719 2.21875 C 7.136719 2.253906 7.351562 2.21875 7.398438 2.175781 Z M 28.722656 2.179688 C 28.65625 2.136719 28.617188 2.136719 28.617188 2.179688 C 28.617188 2.199219 28.652344 2.214844 28.695312 2.214844 C 28.761719 2.214844 28.765625 2.207031 28.722656 2.179688 Z M 28.5625 2.144531 C 28.550781 2.125 28.511719 2.109375 28.472656 2.109375 C 28.433594 2.109375 28.410156 2.125 28.421875 2.144531 C 28.4375 2.164062 28.476562 2.179688 28.515625 2.179688 C 28.554688 2.179688 28.578125 2.164062 28.5625 2.144531 Z M 8.242188 2.070312 C 8.695312 2.027344 8.800781 2.003906 8.523438 2.003906 C 8.226562 2.003906 7.6875 2.074219 7.648438 2.113281 C 7.621094 2.140625 7.640625 2.148438 7.71875 2.132812 C 7.773438 2.121094 8.011719 2.09375 8.242188 2.070312 Z M 28.351562 2.113281 C 28.308594 2.070312 27.703125 2.003906 27.414062 2.007812 C 27.246094 2.011719 27.304688 2.023438 27.660156 2.058594 C 27.917969 2.082031 28.152344 2.113281 28.1875 2.121094 C 28.300781 2.148438 28.386719 2.144531 28.351562 2.113281 Z M 28.351562 2.113281 "/>
</g>
</svg>
